<mxfile host="Electron" modified="2024-04-22T09:05:44.138Z" agent="Mozilla/5.0 (Windows NT 10.0; Win64; x64) AppleWebKit/537.36 (KHTML, like Gecko) draw.io/22.1.16 Chrome/120.0.6099.109 Electron/28.1.0 Safari/537.36" etag="AQXInMP5mzIvk8fHv_77" version="22.1.16" type="device">
  <diagram name="Pagina-1" id="A_E6CbwBwWgAngFVjCyz">
    <mxGraphModel dx="1909" dy="5810" grid="1" gridSize="10" guides="1" tooltips="1" connect="1" arrows="1" fold="1" page="1" pageScale="1" pageWidth="3300" pageHeight="4681" math="0" shadow="0">
      <root>
        <mxCell id="0" />
        <mxCell id="1" parent="0" />
        <mxCell id="1te7XM0qHF8xhdS0dAe9-12" style="edgeStyle=orthogonalEdgeStyle;rounded=0;orthogonalLoop=1;jettySize=auto;html=1;exitX=0.5;exitY=1;exitDx=0;exitDy=0;entryX=0.5;entryY=0;entryDx=0;entryDy=0;endArrow=diamondThin;endFill=1;endSize=30;" parent="1" source="88QzCUUw6ZPVAZc6Vlqh-9" edge="1">
          <mxGeometry relative="1" as="geometry">
            <mxPoint x="1310" y="880" as="targetPoint" />
          </mxGeometry>
        </mxCell>
        <mxCell id="1te7XM0qHF8xhdS0dAe9-14" style="edgeStyle=orthogonalEdgeStyle;rounded=0;orthogonalLoop=1;jettySize=auto;html=1;exitX=1;exitY=0.5;exitDx=0;exitDy=0;entryX=0.5;entryY=0;entryDx=0;entryDy=0;startArrow=diamondThin;startFill=1;endArrow=none;endFill=0;startSize=30;" parent="1" source="88QzCUUw6ZPVAZc6Vlqh-9" target="88QzCUUw6ZPVAZc6Vlqh-24" edge="1">
          <mxGeometry relative="1" as="geometry" />
        </mxCell>
        <mxCell id="88QzCUUw6ZPVAZc6Vlqh-9" value="&lt;p style=&quot;margin:0px;margin-top:4px;text-align:center;&quot;&gt;&lt;b&gt;CinemaSingleton&lt;/b&gt;&lt;/p&gt;&lt;hr size=&quot;1&quot;&gt;&lt;p style=&quot;margin:0px;margin-left:4px;&quot;&gt;- cinemaName : String&lt;/p&gt;&lt;hr size=&quot;1&quot;&gt;&lt;p style=&quot;margin:0px;margin-left:4px;&quot;&gt;+ getCinemaName() : String&lt;/p&gt;&lt;p style=&quot;margin:0px;margin-left:4px;&quot;&gt;+ getTotalOfTheDay(int) : double&lt;/p&gt;&lt;p style=&quot;margin:0px;margin-left:4px;&quot;&gt;+ getTotalOfTheYear(int) : double&lt;/p&gt;&lt;p style=&quot;margin:0px;margin-left:4px;&quot;&gt;+ getTotalOfTheMonth(int) : double&lt;/p&gt;&lt;p style=&quot;margin:0px;margin-left:4px;&quot;&gt;+ bookSeats(Ticket) : boolean&lt;/p&gt;" style="verticalAlign=top;align=left;overflow=fill;fontSize=12;fontFamily=Helvetica;html=1;whiteSpace=wrap;rounded=0;" parent="1" vertex="1">
          <mxGeometry x="1170" y="320" width="280" height="200" as="geometry" />
        </mxCell>
        <mxCell id="1te7XM0qHF8xhdS0dAe9-15" style="edgeStyle=orthogonalEdgeStyle;rounded=0;orthogonalLoop=1;jettySize=auto;html=1;exitX=1;exitY=0.5;exitDx=0;exitDy=0;entryX=0;entryY=0.5;entryDx=0;entryDy=0;startArrow=diamondThin;startFill=1;endArrow=none;endFill=0;startSize=30;" parent="1" source="88QzCUUw6ZPVAZc6Vlqh-24" target="88QzCUUw6ZPVAZc6Vlqh-45" edge="1">
          <mxGeometry relative="1" as="geometry" />
        </mxCell>
        <mxCell id="88QzCUUw6ZPVAZc6Vlqh-24" value="&lt;p style=&quot;margin:0px;margin-top:4px;text-align:center;&quot;&gt;&lt;b&gt;CinemaRoom&lt;/b&gt;&lt;/p&gt;&lt;hr size=&quot;1&quot;&gt;&lt;p style=&quot;margin:0px;margin-left:4px;&quot;&gt;- idCinemaRoom : int&lt;/p&gt;&lt;p style=&quot;margin:0px;margin-left:4px;&quot;&gt;- roomCapacity : int&amp;nbsp;&lt;/p&gt;&lt;hr size=&quot;1&quot;&gt;&lt;p style=&quot;margin:0px;margin-left:4px;&quot;&gt;+ getIdCinemaRoom() : int&lt;/p&gt;&lt;p style=&quot;margin:0px;margin-left:4px;&quot;&gt;+ getRoomCapacity() : int&amp;nbsp;&lt;/p&gt;&lt;p style=&quot;margin:0px;margin-left:4px;&quot;&gt;&lt;br&gt;&lt;/p&gt;" style="verticalAlign=top;align=left;overflow=fill;fontSize=12;fontFamily=Helvetica;html=1;whiteSpace=wrap;rounded=0;glass=0;" parent="1" vertex="1">
          <mxGeometry x="1540" y="630" width="280" height="200" as="geometry" />
        </mxCell>
        <mxCell id="88QzCUUw6ZPVAZc6Vlqh-27" value="&lt;p style=&quot;margin:0px;margin-top:4px;text-align:center;&quot;&gt;&lt;b&gt;Costumer&lt;/b&gt;&lt;/p&gt;&lt;hr size=&quot;1&quot;&gt;&lt;p style=&quot;margin:0px;margin-left:4px;&quot;&gt;-&lt;/p&gt;&lt;hr size=&quot;1&quot;&gt;&lt;p style=&quot;margin:0px;margin-left:4px;&quot;&gt;&lt;br&gt;&lt;/p&gt;" style="verticalAlign=top;align=left;overflow=fill;fontSize=12;fontFamily=Helvetica;html=1;whiteSpace=wrap;rounded=0;" parent="1" vertex="1">
          <mxGeometry x="280" y="760" width="280" height="200" as="geometry" />
        </mxCell>
        <mxCell id="1te7XM0qHF8xhdS0dAe9-17" style="edgeStyle=orthogonalEdgeStyle;rounded=0;orthogonalLoop=1;jettySize=auto;html=1;exitX=0.5;exitY=0;exitDx=0;exitDy=0;entryX=0.5;entryY=1;entryDx=0;entryDy=0;endArrow=none;endFill=0;startArrow=diamondThin;startFill=1;startSize=30;" parent="1" source="88QzCUUw6ZPVAZc6Vlqh-29" target="88QzCUUw6ZPVAZc6Vlqh-45" edge="1">
          <mxGeometry relative="1" as="geometry" />
        </mxCell>
        <mxCell id="88QzCUUw6ZPVAZc6Vlqh-29" value="&lt;p style=&quot;margin:0px;margin-top:4px;text-align:center;&quot;&gt;&lt;b&gt;Film&lt;/b&gt;&lt;/p&gt;&lt;hr size=&quot;1&quot;&gt;&lt;p style=&quot;margin:0px;margin-left:4px;&quot;&gt;- filmName : String&lt;/p&gt;&lt;p style=&quot;margin:0px;margin-left:4px;&quot;&gt;- rating : double&lt;/p&gt;&lt;p style=&quot;margin:0px;margin-left:4px;&quot;&gt;- year : int&lt;/p&gt;&lt;p style=&quot;margin:0px;margin-left:4px;&quot;&gt;- duration : String&lt;/p&gt;&lt;hr size=&quot;1&quot;&gt;&lt;p style=&quot;margin:0px;margin-left:4px;&quot;&gt;+ getFilmName() : String&lt;/p&gt;&lt;p style=&quot;margin:0px;margin-left:4px;&quot;&gt;+ getRating() : double&lt;/p&gt;&lt;p style=&quot;margin:0px;margin-left:4px;&quot;&gt;+ getYear() : int&lt;/p&gt;&lt;p style=&quot;margin:0px;margin-left:4px;&quot;&gt;+ getDuration() : String&lt;/p&gt;" style="verticalAlign=top;align=left;overflow=fill;fontSize=12;fontFamily=Helvetica;html=1;whiteSpace=wrap;rounded=0;" parent="1" vertex="1">
          <mxGeometry x="1960" y="960" width="280" height="200" as="geometry" />
        </mxCell>
        <mxCell id="88QzCUUw6ZPVAZc6Vlqh-31" value="&lt;p style=&quot;margin:0px;margin-top:4px;text-align:center;&quot;&gt;&lt;b&gt;Cashier&lt;/b&gt;&lt;/p&gt;&lt;hr size=&quot;1&quot;&gt;&lt;p style=&quot;margin:0px;margin-left:4px;&quot;&gt;-&amp;nbsp;&lt;/p&gt;&lt;hr size=&quot;1&quot;&gt;&lt;p style=&quot;margin:0px;margin-left:4px;&quot;&gt;&lt;br&gt;&lt;/p&gt;" style="verticalAlign=top;align=left;overflow=fill;fontSize=12;fontFamily=Helvetica;html=1;whiteSpace=wrap;rounded=0;" parent="1" vertex="1">
          <mxGeometry x="280" y="1000" width="280" height="200" as="geometry" />
        </mxCell>
        <mxCell id="1te7XM0qHF8xhdS0dAe9-11" style="edgeStyle=orthogonalEdgeStyle;rounded=0;orthogonalLoop=1;jettySize=auto;html=1;exitX=1;exitY=0.5;exitDx=0;exitDy=0;entryX=0;entryY=0.5;entryDx=0;entryDy=0;dashed=1;endArrow=open;endFill=0;endSize=12;" parent="1" source="88QzCUUw6ZPVAZc6Vlqh-38" edge="1">
          <mxGeometry relative="1" as="geometry">
            <mxPoint x="1170" y="980" as="targetPoint" />
          </mxGeometry>
        </mxCell>
        <mxCell id="88QzCUUw6ZPVAZc6Vlqh-38" value="&lt;p style=&quot;margin:0px;margin-top:4px;text-align:center;&quot;&gt;&lt;b&gt;SaleProcess&lt;/b&gt;&lt;/p&gt;&lt;hr size=&quot;1&quot;&gt;&lt;p style=&quot;margin:0px;margin-left:4px;&quot;&gt;- ticket : List&lt;/p&gt;&lt;p style=&quot;margin:0px;margin-left:4px;&quot;&gt;- food : List&lt;/p&gt;&lt;hr size=&quot;1&quot;&gt;&lt;p style=&quot;margin:0px;margin-left:4px;&quot;&gt;&lt;br&gt;&lt;/p&gt;" style="verticalAlign=top;align=left;overflow=fill;fontSize=12;fontFamily=Helvetica;html=1;whiteSpace=wrap;rounded=0;" parent="1" vertex="1">
          <mxGeometry x="740" y="880" width="280" height="200" as="geometry" />
        </mxCell>
        <mxCell id="88QzCUUw6ZPVAZc6Vlqh-40" style="edgeStyle=orthogonalEdgeStyle;rounded=0;orthogonalLoop=1;jettySize=auto;html=1;exitX=0.5;exitY=1;exitDx=0;exitDy=0;" parent="1" edge="1">
          <mxGeometry relative="1" as="geometry">
            <mxPoint x="695.0000000000005" y="1340" as="sourcePoint" />
            <mxPoint x="695.0000000000005" y="1340" as="targetPoint" />
          </mxGeometry>
        </mxCell>
        <mxCell id="88QzCUUw6ZPVAZc6Vlqh-45" value="&lt;p style=&quot;margin:0px;margin-top:4px;text-align:center;&quot;&gt;&lt;b&gt;Projection&lt;/b&gt;&lt;/p&gt;&lt;hr size=&quot;1&quot;&gt;&lt;p style=&quot;margin:0px;margin-left:4px;&quot;&gt;- id : String&lt;/p&gt;&lt;p style=&quot;margin:0px;margin-left:4px;&quot;&gt;&lt;span style=&quot;background-color: initial;&quot;&gt;- data : date&lt;/span&gt;&lt;/p&gt;&lt;p style=&quot;margin:0px;margin-left:4px;&quot;&gt;- cinemaRoom : CinemaRoom&lt;/p&gt;&lt;p style=&quot;margin:0px;margin-left:4px;&quot;&gt;- film : Film&lt;/p&gt;&lt;hr size=&quot;1&quot;&gt;&lt;p style=&quot;margin:0px;margin-left:4px;&quot;&gt;+ getId() : int&lt;/p&gt;&lt;p style=&quot;margin:0px;margin-left:4px;&quot;&gt;+ getData() : date&lt;/p&gt;&lt;p style=&quot;margin:0px;margin-left:4px;&quot;&gt;&lt;br&gt;&lt;/p&gt;" style="verticalAlign=top;align=left;overflow=fill;fontSize=12;fontFamily=Helvetica;html=1;whiteSpace=wrap;rounded=0;" parent="1" vertex="1">
          <mxGeometry x="1960" y="630" width="280" height="200" as="geometry" />
        </mxCell>
        <mxCell id="1te7XM0qHF8xhdS0dAe9-16" style="edgeStyle=orthogonalEdgeStyle;rounded=0;orthogonalLoop=1;jettySize=auto;html=1;exitX=0.5;exitY=1;exitDx=0;exitDy=0;entryX=0.5;entryY=0;entryDx=0;entryDy=0;endArrow=open;endFill=0;endSize=12;" parent="1" source="88QzCUUw6ZPVAZc6Vlqh-47" target="88QzCUUw6ZPVAZc6Vlqh-45" edge="1">
          <mxGeometry relative="1" as="geometry" />
        </mxCell>
        <mxCell id="88QzCUUw6ZPVAZc6Vlqh-47" value="&lt;p style=&quot;margin:0px;margin-top:4px;text-align:center;&quot;&gt;&lt;b&gt;Admin&lt;/b&gt;&lt;/p&gt;&lt;hr size=&quot;1&quot;&gt;&lt;p style=&quot;margin:0px;margin-left:4px;&quot;&gt;-&amp;nbsp;&lt;/p&gt;&lt;hr size=&quot;1&quot;&gt;&lt;p style=&quot;margin:0px;margin-left:4px;&quot;&gt;+ getProjectionById(id) : Projection&lt;/p&gt;&lt;p style=&quot;margin:0px;margin-left:4px;&quot;&gt;+ addProjection(Projection&lt;span style=&quot;background-color: initial;&quot;&gt;) : boolean&lt;/span&gt;&lt;/p&gt;&lt;p style=&quot;margin:0px;margin-left:4px;&quot;&gt;&lt;span style=&quot;background-color: initial;&quot;&gt;+ removeProjection(id) : boolean&lt;/span&gt;&lt;/p&gt;&lt;p style=&quot;margin:0px;margin-left:4px;&quot;&gt;&lt;span style=&quot;background-color: initial;&quot;&gt;+ getFilmByName(filmName) : boolean&lt;/span&gt;&lt;/p&gt;&lt;p style=&quot;margin:0px;margin-left:4px;&quot;&gt;&lt;span style=&quot;background-color: initial;&quot;&gt;+ addFilm(Film) : boolean&lt;/span&gt;&lt;/p&gt;&lt;p style=&quot;margin:0px;margin-left:4px;&quot;&gt;&lt;span style=&quot;background-color: initial;&quot;&gt;+ removeFilm(filmName) : boolean&lt;/span&gt;&lt;/p&gt;&lt;p style=&quot;margin:0px;margin-left:4px;&quot;&gt;&lt;span style=&quot;background-color: initial;&quot;&gt;+ getAllFilms() : list&amp;lt;Film&amp;gt;&lt;/span&gt;&lt;/p&gt;&lt;p style=&quot;margin:0px;margin-left:4px;&quot;&gt;&lt;span style=&quot;background-color: initial;&quot;&gt;+ getAllProjections() : list&amp;lt;Projection&amp;gt;&lt;/span&gt;&lt;/p&gt;" style="verticalAlign=top;align=left;overflow=fill;fontSize=12;fontFamily=Helvetica;html=1;whiteSpace=wrap;rounded=0;" parent="1" vertex="1">
          <mxGeometry x="1960" y="320" width="280" height="200" as="geometry" />
        </mxCell>
        <mxCell id="88QzCUUw6ZPVAZc6Vlqh-50" value="&lt;p style=&quot;margin:0px;margin-top:4px;text-align:center;&quot;&gt;&lt;b&gt;&amp;lt;&amp;lt;interface&amp;gt;&amp;gt;&lt;/b&gt;&lt;/p&gt;&lt;p style=&quot;margin:0px;margin-top:4px;text-align:center;&quot;&gt;&lt;b&gt;IPayment&lt;/b&gt;&lt;/p&gt;&lt;hr size=&quot;1&quot;&gt;&lt;p style=&quot;margin:0px;margin-left:4px;&quot;&gt;- Name : String&lt;/p&gt;&lt;hr size=&quot;1&quot;&gt;&lt;p style=&quot;margin:0px;margin-left:4px;&quot;&gt;&lt;br&gt;&lt;/p&gt;" style="verticalAlign=top;align=left;overflow=fill;fontSize=12;fontFamily=Helvetica;html=1;whiteSpace=wrap;rounded=0;" parent="1" vertex="1">
          <mxGeometry x="740" y="1200" width="280" height="200" as="geometry" />
        </mxCell>
        <mxCell id="88QzCUUw6ZPVAZc6Vlqh-51" value="&lt;p style=&quot;margin:0px;margin-top:4px;text-align:center;&quot;&gt;CashPayment&lt;/p&gt;&lt;hr size=&quot;1&quot;&gt;&lt;p style=&quot;margin:0px;margin-left:4px;&quot;&gt;- Name : String&lt;/p&gt;&lt;hr size=&quot;1&quot;&gt;&lt;p style=&quot;margin:0px;margin-left:4px;&quot;&gt;&lt;br&gt;&lt;/p&gt;" style="verticalAlign=top;align=left;overflow=fill;fontSize=12;fontFamily=Helvetica;html=1;whiteSpace=wrap;rounded=0;" parent="1" vertex="1">
          <mxGeometry x="560" y="1480" width="280" height="200" as="geometry" />
        </mxCell>
        <mxCell id="88QzCUUw6ZPVAZc6Vlqh-70" value="&lt;p style=&quot;margin:0px;margin-top:4px;text-align:center;&quot;&gt;CardPayment&lt;/p&gt;&lt;hr size=&quot;1&quot;&gt;&lt;p style=&quot;margin:0px;margin-left:4px;&quot;&gt;- Name : String&lt;/p&gt;&lt;hr size=&quot;1&quot;&gt;&lt;p style=&quot;margin:0px;margin-left:4px;&quot;&gt;&lt;br&gt;&lt;/p&gt;" style="verticalAlign=top;align=left;overflow=fill;fontSize=12;fontFamily=Helvetica;html=1;whiteSpace=wrap;rounded=0;arcSize=28;" parent="1" vertex="1">
          <mxGeometry x="920" y="1480" width="280" height="200" as="geometry" />
        </mxCell>
        <mxCell id="8V3ZymxkpuE27OcSXMfI-12" value="" style="endArrow=open;endSize=16;dashed=1;html=1;rounded=0;entryX=0.5;entryY=0;entryDx=0;entryDy=0;exitX=0.5;exitY=1;exitDx=0;exitDy=0;" parent="1" target="88QzCUUw6ZPVAZc6Vlqh-50" edge="1">
          <mxGeometry width="160" relative="1" as="geometry">
            <mxPoint x="880" y="1080" as="sourcePoint" />
            <mxPoint x="880" y="1130" as="targetPoint" />
          </mxGeometry>
        </mxCell>
        <mxCell id="8V3ZymxkpuE27OcSXMfI-32" value="&lt;p style=&quot;margin:0px;margin-top:4px;text-align:center;&quot;&gt;&lt;b&gt;UserSingleton&lt;/b&gt;&lt;/p&gt;&lt;hr size=&quot;1&quot;&gt;&lt;p style=&quot;margin:0px;margin-left:4px;&quot;&gt;- email&lt;/p&gt;&lt;p style=&quot;margin:0px;margin-left:4px;&quot;&gt;- password&lt;/p&gt;&lt;p style=&quot;margin:0px;margin-left:4px;&quot;&gt;- mansione&lt;/p&gt;&lt;hr size=&quot;1&quot;&gt;&lt;p style=&quot;margin:0px;margin-left:4px;&quot;&gt;+ getEmail() : String&lt;/p&gt;&lt;p style=&quot;margin:0px;margin-left:4px;&quot;&gt;+ getPassword() : String&lt;/p&gt;&lt;p style=&quot;margin:0px;margin-left:4px;&quot;&gt;+ createCostumer(email,password,String) : void&amp;nbsp;&lt;/p&gt;&lt;p style=&quot;margin:0px;margin-left:4px;&quot;&gt;+ getMansione(email,password) : String&lt;/p&gt;" style="verticalAlign=top;align=left;overflow=fill;fontSize=12;fontFamily=Helvetica;html=1;whiteSpace=wrap;rounded=0;" parent="1" vertex="1">
          <mxGeometry x="280" y="480" width="280" height="200" as="geometry" />
        </mxCell>
        <mxCell id="8V3ZymxkpuE27OcSXMfI-33" value="&lt;h1&gt;UserSingleton&lt;/h1&gt;&lt;p&gt;La mail e la password verranno inseriti tramite gui e devono essere recuperate (getEmail/pass) per la registrazione e per il login. Per aprire la view giusta getMansione ritornerà una stringa ovvero la mansione.&lt;/p&gt;" style="text;html=1;strokeColor=#d6b656;fillColor=#fff2cc;spacing=5;spacingTop=-20;whiteSpace=wrap;overflow=hidden;rounded=0;" parent="1" vertex="1">
          <mxGeometry x="280" y="320" width="280" height="120" as="geometry" />
        </mxCell>
        <mxCell id="1te7XM0qHF8xhdS0dAe9-4" value="" style="endArrow=diamondThin;endFill=1;endSize=30;html=1;rounded=0;exitX=0.5;exitY=1;exitDx=0;exitDy=0;" parent="1" edge="1">
          <mxGeometry width="160" relative="1" as="geometry">
            <mxPoint x="880" y="720" as="sourcePoint" />
            <mxPoint x="878.89" y="880" as="targetPoint" />
          </mxGeometry>
        </mxCell>
        <mxCell id="1te7XM0qHF8xhdS0dAe9-5" style="edgeStyle=orthogonalEdgeStyle;rounded=0;orthogonalLoop=1;jettySize=auto;html=1;exitX=1;exitY=0.5;exitDx=0;exitDy=0;endArrow=none;endFill=0;" parent="1" source="88QzCUUw6ZPVAZc6Vlqh-27" edge="1">
          <mxGeometry relative="1" as="geometry">
            <mxPoint x="740" y="958" as="targetPoint" />
          </mxGeometry>
        </mxCell>
        <mxCell id="1te7XM0qHF8xhdS0dAe9-6" style="edgeStyle=orthogonalEdgeStyle;rounded=0;orthogonalLoop=1;jettySize=auto;html=1;exitX=1;exitY=0.5;exitDx=0;exitDy=0;entryX=-0.004;entryY=0.578;entryDx=0;entryDy=0;entryPerimeter=0;endArrow=none;endFill=0;" parent="1" source="88QzCUUw6ZPVAZc6Vlqh-31" target="88QzCUUw6ZPVAZc6Vlqh-38" edge="1">
          <mxGeometry relative="1" as="geometry" />
        </mxCell>
        <mxCell id="1te7XM0qHF8xhdS0dAe9-8" style="edgeStyle=orthogonalEdgeStyle;rounded=0;orthogonalLoop=1;jettySize=auto;html=1;exitX=0.5;exitY=0;exitDx=0;exitDy=0;entryX=0.352;entryY=1.022;entryDx=0;entryDy=0;entryPerimeter=0;dashed=1;endArrow=block;endFill=0;strokeWidth=1;endSize=12;" parent="1" source="88QzCUUw6ZPVAZc6Vlqh-51" target="88QzCUUw6ZPVAZc6Vlqh-50" edge="1">
          <mxGeometry relative="1" as="geometry" />
        </mxCell>
        <mxCell id="1te7XM0qHF8xhdS0dAe9-9" style="edgeStyle=orthogonalEdgeStyle;rounded=0;orthogonalLoop=1;jettySize=auto;html=1;exitX=0.5;exitY=0;exitDx=0;exitDy=0;entryX=0.644;entryY=1.022;entryDx=0;entryDy=0;entryPerimeter=0;dashed=1;endArrow=block;endFill=0;endSize=12;" parent="1" source="88QzCUUw6ZPVAZc6Vlqh-70" target="88QzCUUw6ZPVAZc6Vlqh-50" edge="1">
          <mxGeometry relative="1" as="geometry" />
        </mxCell>
        <mxCell id="1te7XM0qHF8xhdS0dAe9-18" value="&lt;p style=&quot;margin:0px;margin-top:4px;text-align:center;&quot;&gt;&lt;b&gt;RegisterSingleton&lt;/b&gt;&lt;/p&gt;&lt;hr size=&quot;1&quot;&gt;&lt;p style=&quot;margin:0px;margin-left:4px;&quot;&gt;- ticket : List&lt;/p&gt;&lt;p style=&quot;margin:0px;margin-left:4px;&quot;&gt;- food : List&lt;/p&gt;&lt;hr size=&quot;1&quot;&gt;&lt;p style=&quot;margin:0px;margin-left:4px;&quot;&gt;&lt;br&gt;&lt;/p&gt;" style="verticalAlign=top;align=left;overflow=fill;fontSize=12;fontFamily=Helvetica;html=1;whiteSpace=wrap;rounded=0;" parent="1" vertex="1">
          <mxGeometry x="1170" y="880" width="280" height="200" as="geometry" />
        </mxCell>
        <mxCell id="1te7XM0qHF8xhdS0dAe9-19" value="&lt;p style=&quot;margin:0px;margin-top:4px;text-align:center;&quot;&gt;&lt;b&gt;Ticket&lt;/b&gt;&lt;/p&gt;&lt;hr size=&quot;1&quot;&gt;&lt;p style=&quot;margin:0px;margin-left:4px;&quot;&gt;- ticket : List&lt;/p&gt;&lt;p style=&quot;margin:0px;margin-left:4px;&quot;&gt;- food : List&lt;/p&gt;&lt;hr size=&quot;1&quot;&gt;&lt;p style=&quot;margin:0px;margin-left:4px;&quot;&gt;&lt;br&gt;&lt;/p&gt;" style="verticalAlign=top;align=left;overflow=fill;fontSize=12;fontFamily=Helvetica;html=1;whiteSpace=wrap;rounded=0;" parent="1" vertex="1">
          <mxGeometry x="740" y="520" width="280" height="200" as="geometry" />
        </mxCell>
        <mxCell id="zva54fZYsvHIolFS2Z1O-1" value="&lt;h1&gt;CinemaSingleton&lt;/h1&gt;&lt;p&gt;Sale process dovrà passare un qualcosa così che il cinema vada ad occupare i posti ?&lt;/p&gt;" style="text;html=1;strokeColor=#d6b656;fillColor=#fff2cc;spacing=5;spacingTop=-20;whiteSpace=wrap;overflow=hidden;rounded=0;" parent="1" vertex="1">
          <mxGeometry x="1170" y="160" width="280" height="120" as="geometry" />
        </mxCell>
        <mxCell id="zva54fZYsvHIolFS2Z1O-2" value="&lt;h1&gt;UserSingleton&lt;/h1&gt;&lt;p&gt;Pattern Creator ?&amp;nbsp;&lt;/p&gt;&lt;p&gt;Come gestiamo il pure fabrication che avevamo detto c&#39;era per l&#39;autenticazione ?&amp;nbsp;&lt;/p&gt;" style="text;html=1;strokeColor=#d6b656;fillColor=#fff2cc;spacing=5;spacingTop=-20;whiteSpace=wrap;overflow=hidden;rounded=0;" parent="1" vertex="1">
          <mxGeometry x="280" y="180" width="280" height="120" as="geometry" />
        </mxCell>
        <mxCell id="zva54fZYsvHIolFS2Z1O-3" value="&lt;h1&gt;Admin&lt;/h1&gt;&lt;p&gt;Admin dovrà avere degli attributi mail e password?&lt;/p&gt;&lt;p&gt;Pensare ad altri metodi che dovrà avere per interagire con il database e come funziona tutto ciò con la GUI e il controller.&lt;/p&gt;" style="text;html=1;strokeColor=#d6b656;fillColor=#fff2cc;spacing=5;spacingTop=-20;whiteSpace=wrap;overflow=hidden;rounded=0;" parent="1" vertex="1">
          <mxGeometry x="1960" y="160" width="280" height="120" as="geometry" />
        </mxCell>
        <mxCell id="zva54fZYsvHIolFS2Z1O-4" value="&lt;h1&gt;Film&lt;/h1&gt;&lt;p&gt;Film ha pochi metodi perchè la maggior parte li avrà il suo DAO giusto?&lt;/p&gt;" style="text;html=1;strokeColor=#d6b656;fillColor=#fff2cc;spacing=5;spacingTop=-20;whiteSpace=wrap;overflow=hidden;rounded=0;" parent="1" vertex="1">
          <mxGeometry x="1960" y="1200" width="280" height="120" as="geometry" />
        </mxCell>
        <mxCell id="zva54fZYsvHIolFS2Z1O-5" value="&lt;h1&gt;CinemaRoom&lt;/h1&gt;&lt;p&gt;La room capacity saranno i posti nel database ovvero quelli che poi andremo a decrementare.&lt;/p&gt;" style="text;html=1;strokeColor=#d6b656;fillColor=#fff2cc;spacing=5;spacingTop=-20;whiteSpace=wrap;overflow=hidden;rounded=0;" parent="1" vertex="1">
          <mxGeometry x="1540" y="860" width="280" height="120" as="geometry" />
        </mxCell>
        <mxCell id="zva54fZYsvHIolFS2Z1O-6" value="&lt;h1&gt;Projection&lt;/h1&gt;&lt;p&gt;Anche Projection ha la maggior parte dei metodi nel suo DAO quindi cosa metto qui ?&lt;/p&gt;" style="text;html=1;strokeColor=#d6b656;fillColor=#fff2cc;spacing=5;spacingTop=-20;whiteSpace=wrap;overflow=hidden;rounded=0;" parent="1" vertex="1">
          <mxGeometry x="2280" y="660" width="280" height="120" as="geometry" />
        </mxCell>
        <mxCell id="zva54fZYsvHIolFS2Z1O-7" value="&lt;h1&gt;Diagramma sequenze&lt;/h1&gt;&lt;p&gt;Riguardare diagramma sequenze perchè mi sa che abbiamo sbagliato in quanto ad esempio nella gestione del catalogo non sarà film ad interagire con il suo DAO ma admin (film non ha metodi tipo insert per interagire con il suo DAO ma sarà admin). E anche per sistemare i metodi usati all&#39;inizio come bozza.&lt;/p&gt;" style="text;html=1;strokeColor=#d6b656;fillColor=#fff2cc;spacing=5;spacingTop=-20;whiteSpace=wrap;overflow=hidden;rounded=0;" parent="1" vertex="1">
          <mxGeometry x="1170" y="-10" width="280" height="150" as="geometry" />
        </mxCell>
        <mxCell id="PZR7YoQrq2LTwJLTEjYQ-1" value="&lt;h1&gt;GUI&lt;/h1&gt;&lt;p&gt;Io ad esempio implemento il metodo addProjection come se la gui non esistesse poi associerò questo metodo con action listener ad un bottone che quando viene cliccato esegue tale metodo.&lt;/p&gt;" style="text;html=1;strokeColor=#d6b656;fillColor=#fff2cc;spacing=5;spacingTop=-20;whiteSpace=wrap;overflow=hidden;rounded=0;" vertex="1" parent="1">
          <mxGeometry x="2280" y="360" width="280" height="120" as="geometry" />
        </mxCell>
      </root>
    </mxGraphModel>
  </diagram>
</mxfile>
